<svg xmlns="http://www.w3.org/2000/svg" xmlns:xlink="http://www.w3.org/1999/xlink" version="1.1" width="3300"
     height="1515">

  <g transform="scale(15) translate(10, 10)">
    <defs id="SvgjsDefs2730">
      <linearGradient id="SvgjsLinearGradient2734">
        <stop id="SvgjsStop2735" stop-color="#2d388a" offset="0"></stop>
        <stop id="SvgjsStop2736" stop-color="#00aeef" offset="1"></stop>
      </linearGradient>
      <linearGradient id="SvgjsLinearGradient2737">
        <stop id="SvgjsStop2738" stop-color="#2d388a" offset="0"></stop>
        <stop id="SvgjsStop2739" stop-color="#00aeef" offset="1"></stop>
      </linearGradient>
    </defs>
    <g id="SvgjsG2731" featureKey="root" fill="#ffffff"></g>
    <g id="SvgjsG2732" featureKey="text1" fill="url(#SvgjsLinearGradient2734)"
       transform="matrix(2.8273062705993652,0,0,2.8273062705993652,-4.583328726991322,-4.1365319772262445)">
      <path
        d="M8.36 5 q2.38 0 3.84 1.37 t1.46 3.65 t-1.44 3.64 t-3.86 1.36 l-3.82 0 l0 4.08 q0 0.28 -0.21 0.49 t-0.49 0.21 l-1.52 0 q-0.28 0 -0.49 -0.21 t-0.21 -0.49 l0 -6.2 q0 -0.28 0.21 -0.49 t0.49 -0.21 l5.92 0 q1.34 0 1.92 -0.58 q0.58 -0.52 0.58 -1.58 t-0.6 -1.63 t-1.9 -0.57 l-5.92 0 q-0.28 0 -0.49 -0.21 t-0.21 -0.49 l0 -1.44 q0 -0.28 0.21 -0.49 t0.49 -0.21 l6.04 0 z M29.439999999999998 5 q0.28 0 0.49 0.21 t0.21 0.49 l0 13.4 q0 0.28 -0.21 0.49 t-0.49 0.21 l-1.52 0 q-0.3 0 -0.5 -0.21 t-0.2 -0.49 l0 -9.04 l-3.7 4.76 q-0.22 0.26 -0.56 0.26 l0 0 q-0.16 0 -0.32 -0.07 t-0.24 -0.21 l-6.56 -8.68 q-0.12 -0.14 -0.14 -0.35 t0.08 -0.38 t0.26 -0.28 t0.36 -0.11 l1.76 0 q0.34 0 0.56 0.28 l4.24 5.6 l4.14 -5.6 q0.22 -0.28 0.58 -0.28 l1.76 0 z M17.92 14.7 q0.28 0 0.49 0.2 t0.21 0.5 l0 3.7 q0 0.28 -0.21 0.49 t-0.49 0.21 l-1.52 0 q-0.28 0 -0.49 -0.21 t-0.21 -0.49 l0 -3.7 q0 -0.3 0.21 -0.5 t0.49 -0.2 l1.52 0 z M42.42 13.559999999999999 q0.3 0 0.5 0.2 t0.2 0.48 l0 1.36 q0 0.28 -0.2 0.48 t-0.5 0.2 l-0.8 0 l0 2.7 q0 0.28 -0.21 0.49 t-0.49 0.21 l-1.5 0 q-0.28 0 -0.49 -0.21 t-0.21 -0.49 l0 -2.7 l-5.64 0 q-0.28 0 -0.49 -0.2 t-0.21 -0.48 l0 -1.48 q0 -0.2 0.12 -0.38 l5.58 -8.42 q0.08 -0.14 0.24 -0.23 t0.34 -0.09 l2.26 0 q0.28 0 0.49 0.21 t0.21 0.49 l0 7.86 l0.8 0 z M35.8 13.559999999999999 l2.92 0 l0 -4.32 z M52.26 5 q2.38 0 3.84 1.37 t1.46 3.65 t-1.44 3.64 t-3.86 1.36 l-3.82 0 l0 4.08 q0 0.28 -0.21 0.49 t-0.49 0.21 l-1.52 0 q-0.28 0 -0.49 -0.21 t-0.21 -0.49 l0 -6.2 q0 -0.28 0.21 -0.49 t0.49 -0.21 l5.92 0 q1.34 0 1.92 -0.58 q0.58 -0.52 0.58 -1.58 t-0.6 -1.63 t-1.9 -0.57 l-5.92 0 q-0.28 0 -0.49 -0.21 t-0.21 -0.49 l0 -1.44 q0 -0.28 0.21 -0.49 t0.49 -0.21 l6.04 0 z M72.2 5.380000000000001 q0.1 0.18 0.09 0.38 t-0.13 0.36 l-5.54 8 l0 5.14 q0 0.28 -0.21 0.49 t-0.49 0.21 l-1.54 0 q-0.3 0 -0.51 -0.21 t-0.21 -0.49 l0 -5.86 q0 -0.2 0.14 -0.4 l5.34 -7.7 q0.1 -0.14 0.25 -0.22 t0.33 -0.08 l1.86 0 q0.2 0 0.37 0.1 t0.25 0.28 z M63.779999999999994 9.78 q-0.08 0.18 -0.25 0.28 t-0.37 0.1 l-1.86 0 q-0.36 0 -0.6 -0.3 l-2.6 -3.74 q-0.1 -0.16 -0.11 -0.36 t0.07 -0.38 t0.25 -0.28 t0.37 -0.1 l1.88 0 q0.34 0 0.58 0.3 l2.6 3.74 q0.1 0.16 0.11 0.36 t-0.07 0.38 z"></path>
    </g>
    <!--
    <g id="SvgjsG2733" featureKey="text3" fill="url(#SvgjsLinearGradient2737)"
       transform="matrix(0.5787849426269531,0,0,0.5787849426269531,13.876343228002979,65.95773486541121)">
      <path
        d="M1.94 15.62 l0 -13.24 c0 -0.2 0.16 -0.38 0.38 -0.38 l4.56 0 c2.46 0 4.48 2 4.48 4.42 c0 2.48 -2.02 4.5 -4.46 4.5 l-2.9 0 l0 4.7 c0 0.2 -0.18 0.38 -0.38 0.38 l-1.3 0 c-0.22 0 -0.38 -0.18 -0.38 -0.38 z M4 8.96 l2.76 0 c1.38 0 2.54 -1.12 2.54 -2.56 c0 -1.36 -1.16 -2.4 -2.54 -2.4 l-2.76 0 l0 4.96 z M13.82 15.62 l0 -13.24 c0 -0.2 0.16 -0.38 0.38 -0.38 l5.44 0 c2.4 0 4.36 1.9 4.36 4.28 c0 1.84 -1.22 3.36 -2.96 4.06 l2.74 5.08 c0.14 0.26 0 0.58 -0.34 0.58 l-1.56 0 c-0.16 0 -0.28 -0.1 -0.32 -0.18 l-2.66 -5.3 l-3.02 0 l0 5.1 c0 0.2 -0.18 0.38 -0.38 0.38 l-1.3 0 c-0.22 0 -0.38 -0.18 -0.38 -0.38 z M15.920000000000002 8.8 l3.56 0 c1.3 0 2.44 -1.1 2.44 -2.48 c0 -1.3 -1.14 -2.38 -2.44 -2.38 l-3.56 0 l0 4.86 z M26.1 9.02 c0 -4 3.18 -7.22 7.18 -7.22 s7.2 3.22 7.2 7.22 s-3.2 7.18 -7.2 7.18 s-7.18 -3.18 -7.18 -7.18 z M28.1 9.02 c0 2.86 2.34 5.18 5.18 5.18 c2.86 0 5.2 -2.32 5.2 -5.18 c0 -2.84 -2.34 -5.22 -5.2 -5.22 c-2.84 0 -5.18 2.38 -5.18 5.22 z M42.32 9.02 c0 -4 3.22 -7.22 7.22 -7.22 c2.02 0 3.48 0.68 4.84 1.86 c0.18 0.16 0.18 0.4 0.02 0.56 l-0.88 0.9 c-0.14 0.18 -0.32 0.18 -0.5 0 c-0.94 -0.82 -2.22 -1.34 -3.46 -1.34 c-2.86 0 -5.02 2.4 -5.02 5.2 s2.18 5.18 5.04 5.18 c1.46 0 2.48 -0.58 3.44 -1.32 c0.18 -0.14 0.36 -0.12 0.48 -0.02 l0.92 0.9 c0.16 0.14 0.12 0.4 -0.02 0.54 c-1.36 1.32 -3.08 1.94 -4.86 1.94 c-4 0 -7.22 -3.18 -7.22 -7.18 z M57.26 15.62 l0 -13.24 c0 -0.2 0.16 -0.38 0.38 -0.38 l8 0 c0.22 0 0.38 0.18 0.38 0.38 l0 1.12 c0 0.2 -0.16 0.38 -0.38 0.38 l-6.32 0 l0 4.08 l5.34 0 c0.2 0 0.38 0.18 0.38 0.38 l0 1.12 c0 0.22 -0.18 0.38 -0.38 0.38 l-5.34 0 l0 4.3 l6.32 0 c0.22 0 0.38 0.18 0.38 0.38 l0 1.1 c0 0.2 -0.16 0.38 -0.38 0.38 l-8 0 c-0.22 0 -0.38 -0.18 -0.38 -0.38 z M68.25999999999999 14.620000000000001 c-0.18 -0.16 -0.32 -0.3 -0.12 -0.64 c0.18 -0.26 0.34 -0.56 0.52 -0.82 s0.46 -0.34 0.68 -0.16 c0.12 0.1 1.66 1.38 3.2 1.38 c1.38 0 2.26 -0.84 2.26 -1.86 c0 -1.2 -1.04 -1.96 -3.02 -2.78 c-2.04 -0.86 -3.64 -1.92 -3.64 -4.24 c0 -1.56 1.2 -3.7 4.38 -3.7 c2 0 3.5 1.04 3.7 1.18 c0.16 0.1 0.32 0.38 0.12 0.68 c-0.16 0.24 -0.34 0.52 -0.5 0.76 c-0.16 0.26 -0.42 0.38 -0.7 0.2 c-0.14 -0.08 -1.54 -1 -2.7 -1 c-1.68 0 -2.26 1.06 -2.26 1.8 c0 1.14 0.88 1.84 2.54 2.52 c2.32 0.94 4.3 2.04 4.3 4.48 c0 2.08 -1.86 3.78 -4.46 3.78 c-2.44 0 -3.98 -1.28 -4.3 -1.58 z M78.99999999999999 14.620000000000001 c-0.18 -0.16 -0.32 -0.3 -0.12 -0.64 c0.18 -0.26 0.34 -0.56 0.52 -0.82 s0.46 -0.34 0.68 -0.16 c0.12 0.1 1.66 1.38 3.2 1.38 c1.38 0 2.26 -0.84 2.26 -1.86 c0 -1.2 -1.04 -1.96 -3.02 -2.78 c-2.04 -0.86 -3.64 -1.92 -3.64 -4.24 c0 -1.56 1.2 -3.7 4.38 -3.7 c2 0 3.5 1.04 3.7 1.18 c0.16 0.1 0.32 0.38 0.12 0.68 c-0.16 0.24 -0.34 0.52 -0.5 0.76 c-0.16 0.26 -0.42 0.38 -0.7 0.2 c-0.14 -0.08 -1.54 -1 -2.7 -1 c-1.68 0 -2.26 1.06 -2.26 1.8 c0 1.14 0.88 1.84 2.54 2.52 c2.32 0.94 4.3 2.04 4.3 4.48 c0 2.08 -1.86 3.78 -4.46 3.78 c-2.44 0 -3.98 -1.28 -4.3 -1.58 z  M93.96 15.54 l2.48 -13.44 c0.04 -0.16 0.2 -0.3 0.36 -0.3 l0.32 0 c0.12 0 0.3 0.1 0.34 0.22 l4.18 10.22 l0.08 0 l4.16 -10.22 c0.04 -0.12 0.2 -0.22 0.34 -0.22 l0.32 0 c0.16 0 0.32 0.14 0.36 0.3 l2.46 13.44 c0.06 0.28 -0.08 0.46 -0.36 0.46 l-1.3 0 c-0.18 0 -0.34 -0.14 -0.38 -0.28 l-1.48 -8.94 l-0.06 0 l-3.6 9.2 c-0.04 0.12 -0.16 0.22 -0.34 0.22 l-0.36 0 c-0.16 0 -0.3 -0.1 -0.34 -0.22 l-3.62 -9.2 l-0.08 0 l-1.44 8.94 c-0.02 0.14 -0.2 0.28 -0.36 0.28 l-1.3 0 c-0.28 0 -0.42 -0.18 -0.38 -0.46 z M112.29999999999998 15.62 l0 -13.24 c0 -0.2 0.18 -0.38 0.38 -0.38 l1.32 0 c0.2 0 0.38 0.18 0.38 0.38 l0 13.24 c0 0.2 -0.18 0.38 -0.38 0.38 l-1.32 0 c-0.2 0 -0.38 -0.18 -0.38 -0.38 z M118.25999999999998 15.62 l0 -13.46 c0 -0.2 0.18 -0.36 0.38 -0.36 l0.5 0 l8.68 10.04 l0.02 0 l0 -9.46 c0 -0.2 0.16 -0.38 0.38 -0.38 l1.28 0 c0.2 0 0.38 0.18 0.38 0.38 l0 13.46 c0 0.2 -0.18 0.36 -0.38 0.36 l-0.52 0 l-8.68 -10.32 l-0.02 0 l0 9.74 c0 0.2 -0.16 0.38 -0.38 0.38 l-1.26 0 c-0.2 0 -0.38 -0.18 -0.38 -0.38 z M133.76 15.62 l0 -13.24 c0 -0.2 0.18 -0.38 0.38 -0.38 l1.32 0 c0.2 0 0.38 0.18 0.38 0.38 l0 13.24 c0 0.2 -0.18 0.38 -0.38 0.38 l-1.32 0 c-0.2 0 -0.38 -0.18 -0.38 -0.38 z M139.72 15.62 l0 -13.46 c0 -0.2 0.18 -0.36 0.38 -0.36 l0.5 0 l8.68 10.04 l0.02 0 l0 -9.46 c0 -0.2 0.16 -0.38 0.38 -0.38 l1.28 0 c0.2 0 0.38 0.18 0.38 0.38 l0 13.46 c0 0.2 -0.18 0.36 -0.38 0.36 l-0.52 0 l-8.68 -10.32 l-0.02 0 l0 9.74 c0 0.2 -0.16 0.38 -0.38 0.38 l-1.26 0 c-0.2 0 -0.38 -0.18 -0.38 -0.38 z M154.2 9.02 c0 -4 3.22 -7.22 7.2 -7.22 c1.92 0 3.5 0.7 4.86 1.86 c0.16 0.16 0.18 0.4 0.02 0.56 c-0.3 0.32 -0.6 0.62 -0.9 0.94 c-0.16 0.18 -0.32 0.16 -0.52 -0.02 c-0.94 -0.82 -2.18 -1.36 -3.4 -1.36 c-2.84 0 -5.02 2.4 -5.02 5.2 c0 2.78 2.18 5.18 5.02 5.18 c1.66 0 2.8 -0.6 3 -0.68 l0 -2.24 l-1.96 0 c-0.22 0 -0.38 -0.16 -0.38 -0.36 l0 -1.16 c0 -0.22 0.16 -0.38 0.38 -0.38 l3.64 0 c0.2 0 0.36 0.18 0.36 0.38 c0 1.6 0.02 3.24 0.02 4.84 c0 0.1 -0.08 0.26 -0.16 0.32 c0 0 -2.06 1.32 -4.96 1.32 c-3.98 0 -7.2 -3.18 -7.2 -7.18 z  M174.06 15.62 l0 -13.24 c0 -0.2 0.16 -0.38 0.38 -0.38 l8 0 c0.22 0 0.38 0.18 0.38 0.38 l0 1.12 c0 0.2 -0.16 0.38 -0.38 0.38 l-6.32 0 l0 4.62 l5.34 0 c0.2 0 0.38 0.18 0.38 0.38 l0 1.1 c0 0.2 -0.18 0.38 -0.38 0.38 l-5.34 0 l0 5.26 c0 0.2 -0.18 0.38 -0.38 0.38 l-1.3 0 c-0.22 0 -0.38 -0.18 -0.38 -0.38 z M184.35999999999999 9.02 c0 -4 3.18 -7.22 7.18 -7.22 s7.2 3.22 7.2 7.22 s-3.2 7.18 -7.2 7.18 s-7.18 -3.18 -7.18 -7.18 z M186.35999999999999 9.02 c0 2.86 2.34 5.18 5.18 5.18 c2.86 0 5.2 -2.32 5.2 -5.18 c0 -2.84 -2.34 -5.22 -5.2 -5.22 c-2.84 0 -5.18 2.38 -5.18 5.22 z M201.6 15.62 l0 -13.24 c0 -0.2 0.16 -0.38 0.38 -0.38 l5.44 0 c2.4 0 4.36 1.9 4.36 4.28 c0 1.84 -1.22 3.36 -2.96 4.06 l2.74 5.08 c0.14 0.26 0 0.58 -0.34 0.58 l-1.56 0 c-0.16 0 -0.28 -0.1 -0.32 -0.18 l-2.66 -5.3 l-3.02 0 l0 5.1 c0 0.2 -0.18 0.38 -0.38 0.38 l-1.3 0 c-0.22 0 -0.38 -0.18 -0.38 -0.38 z M203.7 8.8 l3.56 0 c1.3 0 2.44 -1.1 2.44 -2.48 c0 -1.3 -1.14 -2.38 -2.44 -2.38 l-3.56 0 l0 4.86 z  M219.3 15.62 l0 -13.24 c0 -0.2 0.16 -0.38 0.38 -0.38 l4.56 0 c2.46 0 4.48 2 4.48 4.42 c0 2.48 -2.02 4.5 -4.46 4.5 l-2.9 0 l0 4.7 c0 0.2 -0.18 0.38 -0.38 0.38 l-1.3 0 c-0.22 0 -0.38 -0.18 -0.38 -0.38 z M221.36 8.96 l2.76 0 c1.38 0 2.54 -1.12 2.54 -2.56 c0 -1.36 -1.16 -2.4 -2.54 -2.4 l-2.76 0 l0 4.96 z M233.92000000000002 15.62 l0 -6.36 l-4.68 -6.68 c-0.16 -0.26 0 -0.58 0.32 -0.58 l1.48 0 c0.16 0 0.26 0.1 0.32 0.18 l3.62 5.1 l3.62 -5.1 c0.06 -0.08 0.18 -0.18 0.32 -0.18 l1.5 0 c0.32 0 0.48 0.32 0.32 0.58 l-4.74 6.66 l0 6.38 c0 0.2 -0.18 0.38 -0.38 0.38 l-1.32 0 c-0.22 0 -0.38 -0.18 -0.38 -0.38 z M244.58 15.62 l0 -11.74 l-3.26 0 c-0.22 0 -0.38 -0.18 -0.38 -0.38 l0 -1.12 c0 -0.2 0.16 -0.38 0.38 -0.38 l8.6 0 c0.22 0 0.38 0.18 0.38 0.38 l0 1.12 c0 0.2 -0.16 0.38 -0.38 0.38 l-3.26 0 l0 11.74 c0 0.2 -0.18 0.38 -0.38 0.38 l-1.32 0 c-0.2 0 -0.38 -0.18 -0.38 -0.38 z M252.46 15.62 l0 -13.24 c0 -0.2 0.18 -0.38 0.38 -0.38 l1.32 0 c0.22 0 0.38 0.18 0.38 0.38 l0 5.58 l7.32 0 l0 -5.58 c0 -0.2 0.16 -0.38 0.38 -0.38 l1.32 0 c0.2 0 0.38 0.18 0.38 0.38 l0 13.24 c0 0.2 -0.18 0.38 -0.38 0.38 l-1.32 0 c-0.22 0 -0.38 -0.18 -0.38 -0.38 l0 -5.78 l-7.32 0 l0 5.78 c0 0.2 -0.16 0.38 -0.38 0.38 l-1.32 0 c-0.2 0 -0.38 -0.18 -0.38 -0.38 z M266.8 9.02 c0 -4 3.18 -7.22 7.18 -7.22 s7.2 3.22 7.2 7.22 s-3.2 7.18 -7.2 7.18 s-7.18 -3.18 -7.18 -7.18 z M268.8 9.02 c0 2.86 2.34 5.18 5.18 5.18 c2.86 0 5.2 -2.32 5.2 -5.18 c0 -2.84 -2.34 -5.22 -5.2 -5.22 c-2.84 0 -5.18 2.38 -5.18 5.22 z M284.04 15.62 l0 -13.46 c0 -0.2 0.18 -0.36 0.38 -0.36 l0.5 0 l8.68 10.04 l0.02 0 l0 -9.46 c0 -0.2 0.16 -0.38 0.38 -0.38 l1.28 0 c0.2 0 0.38 0.18 0.38 0.38 l0 13.46 c0 0.2 -0.18 0.36 -0.38 0.36 l-0.52 0 l-8.68 -10.32 l-0.02 0 l0 9.74 c0 0.2 -0.16 0.38 -0.38 0.38 l-1.26 0 c-0.2 0 -0.38 -0.18 -0.38 -0.38 z"></path>
    </g>
    -->
  </g>
</svg>
